<svg width="360" height="68" viewBox="0 0 360 68" fill="none" xmlns="http://www.w3.org/2000/svg"><g clip-path="url(#clip0)"><path fill-rule="evenodd" clip-rule="evenodd" d="M30.967 18.328h4.389a11.723 11.723 0 01-2.56-3.464c-.614-1.314.74-3.143 2.199-5.112.802-1.084 1.636-2.21 2.19-3.315a4.69 4.69 0 00.219-3.666A4.935 4.935 0 0034.892 0h-4.876a30.473 30.473 0 002.292 3.769c.877 1.358-.355 2.81-1.916 4.65-1.13 1.331-2.43 2.865-3.229 4.713-1.414 3.254 3.804 5.196 3.804 5.196zm-19.068 4.963h51.693a9.02 9.02 0 013.81.416 8.742 8.742 0 013.251 1.952 8.3 8.3 0 012.058 3.107 8.022 8.022 0 01.463 3.654 8.179 8.179 0 01-.44 3.683 8.452 8.452 0 01-2.032 3.152 8.896 8.896 0 01-3.237 2.021 9.19 9.19 0 01-3.825.507h-3.486a51.896 51.896 0 01-5.292 9.106c-3.468 3.396-7.782 5.886-12.533 7.233H32.308c-4.366-.486-8.453-2.308-11.655-5.197-4.252-4.687-6.907-10.511-7.608-16.69-.56-2.551-1.146-12.944-1.146-12.944zm29.382 30.056c4.11-1.393 7.755-3.818 10.558-7.023C56.08 41.198 55.69 28.02 55.69 28.02H17.556s0 11.54 4.877 17.954c2.669 3.676 6.637 6.296 11.167 7.374h7.68zm20.092-25.094l-.659 8.544s7.364 1.054 7.364-4.26-6.705-4.284-6.705-4.284zm-14.02-9.925h-4.365s-5.243-1.942-3.828-5.196c.797-1.846 2.101-3.38 3.233-4.71 1.567-1.84 2.803-3.294 1.911-4.653A31.9 31.9 0 0142.037 0h4.876a4.935 4.935 0 012.512 2.77 4.69 4.69 0 01-.22 3.667c-.553 1.105-1.39 2.23-2.194 3.313-1.464 1.97-2.824 3.8-2.195 5.114a11.716 11.716 0 002.536 3.464zM2.876 55.992L0 60.673S14.386 68 37.794 68c23.408 0 35.6-7.467 35.6-7.467l-3.024-4.4s-9.192 6.881-32.795 6.881c-23.165 0-34.698-7.022-34.698-7.022z" fill="url(#paint0_linear)"/><path d="M103.448 28.456a52.408 52.408 0 00-.72 2.256 208.11 208.11 0 01-1.008 3.504 666.667 666.667 0 01-2.304 8.064 148.342 148.342 0 00-.864 3.216 98.024 98.024 0 00-.864 3.552 7.767 7.767 0 00-.144.912c-.032.32-.08.656-.144 1.008-.128.832-.272 1.488-.432 1.968-.128.448-.32.848-.576 1.2-.16.224-.384.464-.672.72a9.16 9.16 0 01-.912.624c-.32.224-.624.4-.912.528-.288.16-.528.24-.72.24-.704 0-1.056-.224-1.056-.672 0-.288.112-.928.336-1.92l.864-3.36c.352-1.248.704-2.512 1.056-3.792.352-1.312.64-2.432.864-3.36.128-.512.32-1.232.576-2.16.288-.96.592-2 .912-3.12.32-1.152.656-2.32 1.008-3.504.352-1.216.672-2.336.96-3.36.32-1.024.576-1.888.768-2.592.224-.736.368-1.2.432-1.392a4.47 4.47 0 00.192-.768c.064-.224.144-.48.24-.768.064-.192.16-.416.288-.672.16-.288.336-.56.528-.816L95 24.088c-.16 0-.416.016-.768.048h-1.056c-.384 0-.752.016-1.104.048h-.624c-.576 0-.864-.176-.864-.528 0-.672.224-1.104.672-1.296.224-.096.56-.176 1.008-.24.48-.064 1.104-.096 1.872-.096h4.608c1.44-.032 2.736-.064 3.888-.096 1.152-.032 2.128-.064 2.928-.096.832-.032 1.44-.048 1.824-.048l4.368-.192c.576-.032.896.144.96.528 0 .192-.176.384-.528.576-.32.192-.768.368-1.344.528a15.08 15.08 0 00-.624.192c-.16.032-.352.08-.576.144-.192.032-.432.08-.72.144-.288.064-.64.112-1.056.144a6.753 6.753 0 01-1.2.096 13.776 13.776 0 00-1.632 0l-1.584 4.512zm9.178 14.736a11.22 11.22 0 002.064-.624c.608-.288 1.424-.8 2.448-1.536 1.376-.992 2.256-1.92 2.64-2.784.384-.864.576-1.616.576-2.256 0-.64-.4-.96-1.2-.96-.544 0-1.136.208-1.776.624-.64.416-1.328 1.088-2.064 2.016a16.58 16.58 0 00-1.68 2.736 13.909 13.909 0 00-1.008 2.784zm-.384 2.928c-.064.192-.112.4-.144.624v.432c0 2.016.352 3.584 1.056 4.704.704 1.12 1.984 1.68 3.84 1.68.48 0 .976-.064 1.488-.192.512-.16.976-.336 1.392-.528.48-.192.944-.432 1.392-.72.192.192.288.496.288.912 0 .192-.224.448-.672.768-.416.288-.976.576-1.68.864-.672.288-1.44.528-2.304.72-.864.224-1.712.336-2.544.336-2.048 0-3.648-.592-4.8-1.776-1.12-1.216-1.68-2.912-1.68-5.088 0-1.888.304-3.68.912-5.376.608-1.728 1.632-3.424 3.072-5.088a18.258 18.258 0 012.688-2.544c.992-.736 2.208-1.488 3.648-2.256.768-.416 1.472-.704 2.112-.864.672-.16 1.232-.272 1.68-.336.928 0 1.584.128 1.968.384.384.224.576.64.576 1.248 0 .288-.064.656-.192 1.104-.096.448-.336.976-.72 1.584-.352.608-.88 1.296-1.584 2.064-.672.736-1.584 1.552-2.736 2.448a27.409 27.409 0 01-2.64 1.872c-.832.512-1.568.944-2.208 1.296-.736.384-1.408.704-2.016.96l-.192.768zm31.541-1.728c-.128.512-.256 1.04-.384 1.584a117.43 117.43 0 01-.384 1.584c-.096.48-.176.912-.24 1.296a5.876 5.876 0 00-.096.912v1.872c0 .256-.048.464-.144.624l-.432.576c-.096.128-.304.32-.624.576-.32.256-.672.528-1.056.816-.384.256-.752.48-1.104.672-.352.192-.624.288-.816.288-.256 0-.448-.064-.576-.192-.128-.128-.192-.384-.192-.768 0-.16.032-.416.096-.768.096-.352.256-.976.48-1.872.128-.544.24-1.024.336-1.44.128-.448.24-.88.336-1.296.128-.416.24-.832.336-1.248.096-.448.224-.928.384-1.44.352-1.216.672-2.304.96-3.264.32-.992.608-1.952.864-2.88.192-.64.352-1.296.48-1.968.128-.672.224-1.136.288-1.392 0-.672-.128-1.024-.384-1.056-.352 0-.912.304-1.68.912-.768.608-1.712 1.648-2.832 3.12a37.785 37.785 0 00-2.688 3.84 47.922 47.922 0 00-2.16 3.936 44.257 44.257 0 00-.96 2.208c-.32.832-.64 1.712-.96 2.64l-.48 1.44c-.128.352-.368.736-.72 1.152a2.374 2.374 0 01-.48.336 4.892 4.892 0 01-.72.384 3.427 3.427 0 01-.864.288c-.288.096-.56.144-.816.144-.288 0-.512-.08-.672-.24a.893.893 0 01-.192-.576c0-.352.048-.672.144-.96.096-.288.24-.704.432-1.248.288-.672.576-1.424.864-2.256.256-.704.528-1.504.816-2.4.288-.896.592-1.856.912-2.88.288-.928.576-1.92.864-2.976.288-1.056.56-2.048.816-2.976a71.46 71.46 0 00.624-2.4c.192-.672.304-1.088.336-1.248a1.41 1.41 0 00.048-.336.906.906 0 00.048-.288c0-.16-.048-.24-.144-.24a.906.906 0 00-.288-.048c-.16 0-.384.064-.672.192a4.301 4.301 0 00-.768.384c-.32.16-.624.336-.912.528a1.907 1.907 0 01-.288.24c-.192.128-.32.192-.384.192-.128 0-.224-.064-.288-.192a1.41 1.41 0 01-.048-.336c0-.096.144-.272.432-.528.288-.256.64-.528 1.056-.816.448-.32.944-.624 1.488-.912a16.032 16.032 0 011.536-.72 12.508 12.508 0 011.44-.48c.416-.128.992-.192 1.728-.192.288 0 .432.144.432.432 0 .16-.048.56-.144 1.2-.096.608-.352 1.632-.768 3.072l-1.584 5.568.144.096c.544-.736 1.104-1.488 1.68-2.256.48-.64.992-1.312 1.536-2.016a39.984 39.984 0 011.68-2.016c.288-.32.608-.656.96-1.008s.688-.672 1.008-.96c.32-.32.592-.576.816-.768.256-.224.416-.352.48-.384a6.642 6.642 0 011.536-.72 6.649 6.649 0 012.352-.432c.608 0 .928.416.96 1.248 0 .288-.064.736-.192 1.344-.096.576-.272 1.328-.528 2.256-.256.896-.512 1.776-.768 2.64-.224.736-.464 1.536-.72 2.4a62.642 62.642 0 00-.576 2.4zm18.132 6.096c.032.192.064.368.096.528.032.16.048.336.048.528.032.192.048.368.048.528 0 .224-.128.528-.384.912a8.07 8.07 0 01-.864 1.104 5.654 5.654 0 01-1.2.912c-.448.256-.864.384-1.248.384-.256 0-.48-.064-.672-.192-.192-.096-.288-.272-.288-.528 0-.128.032-.4.096-.816.064-.448.128-.944.192-1.488.096-.544.176-1.088.24-1.632.096-.544.176-.992.24-1.344.064-.32.144-.704.24-1.152l.336-1.584c.16-.608.336-1.312.528-2.112.224-.832.496-1.792.816-2.88.864-2.912 1.296-4.608 1.296-5.088 0-.16-.032-.272-.096-.336s-.224-.096-.48-.096c-.544 0-1.2.336-1.968 1.008-.736.672-1.68 1.744-2.832 3.216-.448.544-.992 1.28-1.632 2.208-.608.896-1.2 1.872-1.776 2.928a23.751 23.751 0 00-1.488 3.312c-.384 1.12-.576 2.176-.576 3.168 0 .608.048 1.072.144 1.392a6.287 6.287 0 01-1.44 1.728c-.576.48-1.104.72-1.584.72-.384 0-.704-.144-.96-.432-.256-.256-.384-.688-.384-1.296 0-1.376 1.632-4.56 4.896-9.552.8-1.248 1.6-2.416 2.4-3.504.832-1.088 1.6-2.064 2.304-2.928a28.942 28.942 0 011.92-2.16c.576-.608 1.04-1.04 1.392-1.296.864-.64 1.664-1.152 2.4-1.536a5.301 5.301 0 012.4-.576c.192 0 .368.016.528.048.192 0 .352.048.48.144.16.096.288.256.384.48.096.192.144.496.144.912 0 .256-.064.672-.192 1.248a31.54 31.54 0 01-.528 1.92c-.224.736-.464 1.536-.72 2.4a78.244 78.244 0 01-.72 2.592c-.256.832-.48 1.632-.672 2.4a24.914 24.914 0 00-.432 1.92c-.16.864-.272 1.616-.336 2.256-.064.64-.096 1.184-.096 1.632zm32.551-16.416c0 .192-.096.528-.288 1.008-.192.48-.368.944-.528 1.392-.224.608-.416 1.12-.576 1.536-.16.416-.352.928-.576 1.536a58.957 58.957 0 00-1.536 4.896 78.232 78.232 0 00-1.056 4.512c-.096.448-.176.848-.24 1.2-.032.32-.064.704-.096 1.152-.064.64-.112 1.2-.144 1.68 0 .448-.08.848-.24 1.2-.064.096-.24.256-.528.48-.256.224-.56.448-.912.672a5.001 5.001 0 01-1.152.624c-.384.192-.72.288-1.008.288-.192 0-.4-.048-.624-.144a.598.598 0 01-.336-.48c0-.416.144-1.28.432-2.592.32-1.312.8-3.104 1.44-5.376.224-.768.448-1.568.672-2.4.192-.672.4-1.408.624-2.208.224-.8.448-1.52.672-2.16.32-.992.624-1.952.912-2.88.32-.928.576-1.664.768-2.208.192-.544.352-.928.48-1.152.16-.256.416-.512.768-.768.256-.16.496-.272.72-.336.224-.096.496-.144.816-.144.544 0 .928.032 1.152.096.256.064.384.256.384.576zm-19.344 9.504c-.16.416-.304.832-.432 1.248-.128.352-.272.736-.432 1.152-.128.416-.24.8-.336 1.152l-.864 2.784c-.256.928-.384 1.6-.384 2.016 0 .608.128 1.024.384 1.248.288.224.8.336 1.536.336.512 0 1.12-.16 1.824-.48.736-.352 1.424-.88 2.064-1.584.672-.704 1.232-1.568 1.68-2.592.48-1.024.72-2.24.72-3.648 0-.8-.176-1.488-.528-2.064-.352-.608-.928-.912-1.728-.912-.544 0-1.136.144-1.776.432-.608.256-1.184.56-1.728.912zm.48-1.536a14.251 14.251 0 012.592-1.344 7.425 7.425 0 012.736-.528c1.216 0 2.112.272 2.688.816.608.512.928 1.376.96 2.592.032 2.144-.752 4.224-2.352 6.24a22.107 22.107 0 01-2.208 2.448c-.8.768-1.872 1.536-3.216 2.304-.928.544-1.856.928-2.784 1.152-.928.256-1.728.384-2.4.384-1.92 0-2.88-.688-2.88-2.064 0-.736.128-1.776.384-3.12.288-1.344.848-3.2 1.68-5.568.096-.288.24-.704.432-1.248s.384-1.136.576-1.776c.224-.672.432-1.36.624-2.064l.624-1.968c.064-.224.128-.464.192-.72.064-.288.128-.56.192-.816.064-.288.128-.592.192-.912l.048-.576c0-.224-.08-.336-.24-.336-.192 0-.4.032-.624.096a2.52 2.52 0 00-.576.144 4.399 4.399 0 01-.576.24c-.256 0-.384-.208-.384-.624 0-.192.256-.416.768-.672.512-.288 1.12-.592 1.824-.912.768-.352 1.52-.624 2.256-.816.768-.192 1.376-.288 1.824-.288.192 0 .368.048.528.144.16.064.24.224.24.48 0 .288-.24 1.168-.72 2.64a67.818 67.818 0 01-.912 2.736c-.384 1.088-.88 2.4-1.488 3.936zm25.149 1.152a11.22 11.22 0 002.064-.624c.608-.288 1.424-.8 2.448-1.536 1.376-.992 2.256-1.92 2.64-2.784.384-.864.576-1.616.576-2.256 0-.64-.4-.96-1.2-.96-.544 0-1.136.208-1.776.624-.64.416-1.328 1.088-2.064 2.016a16.58 16.58 0 00-1.68 2.736 13.909 13.909 0 00-1.008 2.784zm-.384 2.928c-.064.192-.112.4-.144.624v.432c0 2.016.352 3.584 1.056 4.704.704 1.12 1.984 1.68 3.84 1.68.48 0 .976-.064 1.488-.192.512-.16.976-.336 1.392-.528.48-.192.944-.432 1.392-.72.192.192.288.496.288.912 0 .192-.224.448-.672.768-.416.288-.976.576-1.68.864-.672.288-1.44.528-2.304.72-.864.224-1.712.336-2.544.336-2.048 0-3.648-.592-4.8-1.776-1.12-1.216-1.68-2.912-1.68-5.088 0-1.888.304-3.68.912-5.376.608-1.728 1.632-3.424 3.072-5.088a18.258 18.258 0 012.688-2.544c.992-.736 2.208-1.488 3.648-2.256.768-.416 1.472-.704 2.112-.864.672-.16 1.232-.272 1.68-.336.928 0 1.584.128 1.968.384.384.224.576.64.576 1.248 0 .288-.064.656-.192 1.104-.096.448-.336.976-.72 1.584-.352.608-.88 1.296-1.584 2.064-.672.736-1.584 1.552-2.736 2.448a27.409 27.409 0 01-2.64 1.872c-.832.512-1.568.944-2.208 1.296-.736.384-1.408.704-2.016.96l-.192.768zm42.898-19.872c-.384-.48-.656-.912-.816-1.296-.128-.384-.192-.832-.192-1.344 0-.64.24-1.376.72-2.208.512-.832 1.328-1.776 2.448-2.832a35.28 35.28 0 012.448-2.208c.928-.768 1.92-1.52 2.976-2.256a32.268 32.268 0 013.312-2.112 27.335 27.335 0 013.504-1.728 15.199 15.199 0 011.824-.576c.64-.192 1.248-.352 1.824-.48a11.994 11.994 0 011.584-.24c.48-.064.848-.096 1.104-.096.448 0 .88.032 1.296.096.416.064.624.352.624.864 0 .128-.016.304-.048.528a2.656 2.656 0 01-.192.672 2.026 2.026 0 01-.384.528.651.651 0 01-.48.192 5.15 5.15 0 01-1.152-.144c-.384-.096-.944-.144-1.68-.144-1.408 0-2.784.208-4.128.624-1.312.416-2.592.96-3.84 1.632a23.547 23.547 0 00-3.552 2.352 31.08 31.08 0 00-3.024 2.736c-.64.64-1.104 1.2-1.392 1.68-.288.48-.432.96-.432 1.44 0 .416.048.768.144 1.056.128.288.32.608.576.96.544.864 1.2 1.76 1.968 2.688.768.928 1.488 2 2.16 3.216.704 1.184 1.296 2.56 1.776 4.128.512 1.568.768 3.44.768 5.616 0 .384-.048.912-.144 1.584-.096.672-.288 1.44-.576 2.304a24.51 24.51 0 01-1.056 2.832 20.58 20.58 0 01-1.632 3.072c-.768 1.216-1.536 2.24-2.304 3.072-.736.8-1.456 1.44-2.16 1.92-.704.48-1.376.816-2.016 1.008-.64.224-1.232.336-1.776.336-.512 0-1.056-.08-1.632-.24a3.797 3.797 0 01-1.584-.912c-.48-.48-.88-1.12-1.2-1.92-.32-.832-.48-1.92-.48-3.264 0-.896.128-1.904.384-3.024s.624-2.272 1.104-3.456a23.068 23.068 0 011.92-3.6 22.818 22.818 0 012.688-3.456 39.168 39.168 0 011.632-1.632c.64-.576 1.136-.912 1.488-1.008.352 0 .528.24.528.72a8.628 8.628 0 01-.576.528l-.528.528a6.543 6.543 0 00-.48.528c-1.44 1.92-2.528 3.84-3.264 5.76-.704 1.92-1.056 4.048-1.056 6.384 0 1.184.096 2.128.288 2.832.192.704.416 1.248.672 1.632.288.384.592.64.912.768.32.128.608.192.864.192.928 0 1.776-.304 2.544-.912.8-.64 1.568-1.68 2.304-3.12a15.264 15.264 0 001.488-4.512c.288-1.568.432-3.216.432-4.944 0-1.408-.24-2.768-.72-4.08a20.388 20.388 0 00-1.68-3.696 23.276 23.276 0 00-2.16-3.12 58.646 58.646 0 00-1.968-2.448zm16.736 16.944a11.22 11.22 0 002.064-.624c.608-.288 1.424-.8 2.448-1.536 1.376-.992 2.256-1.92 2.64-2.784.384-.864.576-1.616.576-2.256 0-.64-.4-.96-1.2-.96-.544 0-1.136.208-1.776.624-.64.416-1.328 1.088-2.064 2.016a16.58 16.58 0 00-1.68 2.736 13.909 13.909 0 00-1.008 2.784zm-.384 2.928c-.064.192-.112.4-.144.624v.432c0 2.016.352 3.584 1.056 4.704.704 1.12 1.984 1.68 3.84 1.68.48 0 .976-.064 1.488-.192.512-.16.976-.336 1.392-.528.48-.192.944-.432 1.392-.72.192.192.288.496.288.912 0 .192-.224.448-.672.768-.416.288-.976.576-1.68.864-.672.288-1.44.528-2.304.72-.864.224-1.712.336-2.544.336-2.048 0-3.648-.592-4.8-1.776-1.12-1.216-1.68-2.912-1.68-5.088 0-1.888.304-3.68.912-5.376.608-1.728 1.632-3.424 3.072-5.088a18.258 18.258 0 012.688-2.544c.992-.736 2.208-1.488 3.648-2.256.768-.416 1.472-.704 2.112-.864.672-.16 1.232-.272 1.68-.336.928 0 1.584.128 1.968.384.384.224.576.64.576 1.248 0 .288-.064.656-.192 1.104-.096.448-.336.976-.72 1.584-.352.608-.88 1.296-1.584 2.064-.672.736-1.584 1.552-2.736 2.448a27.409 27.409 0 01-2.64 1.872c-.832.512-1.568.944-2.208 1.296-.736.384-1.408.704-2.016.96l-.192.768zm25.637-6.72c.224-.576.368-1.12.432-1.632.096-.544.16-1.184.192-1.92 0-.672-.368-1.008-1.104-1.008-1.024 0-2.016.384-2.976 1.152-.928.768-1.76 1.776-2.496 3.024s-1.328 2.672-1.776 4.272a19.378 19.378 0 00-.624 4.896c0 1.728.352 3.088 1.056 4.08.352.48.784.816 1.296 1.008.512.16 1.232.24 2.16.24a4.62 4.62 0 001.776-.336 16.64 16.64 0 001.68-.864c.32-.224.592-.336.816-.336.16 0 .304.048.432.144.16.096.24.32.24.672 0 .128-.208.352-.624.672-.416.32-.992.656-1.728 1.008-.736.32-1.6.608-2.592.864a12.84 12.84 0 01-3.216.384c-1.568 0-2.864-.448-3.888-1.344-1.024-.928-1.552-2.352-1.584-4.272-.032-4.48 1.68-8.656 5.136-12.528a17.496 17.496 0 012.4-2.256 18.16 18.16 0 012.4-1.584c.8-.448 1.552-.784 2.256-1.008.704-.224 1.296-.336 1.776-.336.288 0 .592.032.912.096.32.032.608.112.864.24.288.128.512.32.672.576.16.224.24.528.24.912 0 1.12-.128 2.192-.384 3.216-.064.32-.208.704-.432 1.152a2.936 2.936 0 01-.816 1.056c-.544.448-1.04.752-1.488.912-.448.128-.784.192-1.008.192-.224 0-.352-.096-.384-.288l.384-1.056zm10.091 3.792a11.22 11.22 0 002.064-.624c.608-.288 1.424-.8 2.448-1.536 1.376-.992 2.256-1.92 2.64-2.784.384-.864.576-1.616.576-2.256 0-.64-.4-.96-1.2-.96-.544 0-1.136.208-1.776.624-.64.416-1.328 1.088-2.064 2.016a16.58 16.58 0 00-1.68 2.736 13.909 13.909 0 00-1.008 2.784zm-.384 2.928c-.064.192-.112.4-.144.624v.432c0 2.016.352 3.584 1.056 4.704.704 1.12 1.984 1.68 3.84 1.68.48 0 .976-.064 1.488-.192.512-.16.976-.336 1.392-.528.48-.192.944-.432 1.392-.72.192.192.288.496.288.912 0 .192-.224.448-.672.768-.416.288-.976.576-1.68.864-.672.288-1.44.528-2.304.72-.864.224-1.712.336-2.544.336-2.048 0-3.648-.592-4.8-1.776-1.12-1.216-1.68-2.912-1.68-5.088 0-1.888.304-3.68.912-5.376.608-1.728 1.632-3.424 3.072-5.088a18.258 18.258 0 012.688-2.544c.992-.736 2.208-1.488 3.648-2.256.768-.416 1.472-.704 2.112-.864.672-.16 1.232-.272 1.68-.336.928 0 1.584.128 1.968.384.384.224.576.64.576 1.248 0 .288-.064.656-.192 1.104-.096.448-.336.976-.72 1.584-.352.608-.88 1.296-1.584 2.064-.672.736-1.584 1.552-2.736 2.448a27.409 27.409 0 01-2.64 1.872c-.832.512-1.568.944-2.208 1.296-.736.384-1.408.704-2.016.96l-.192.768zm26.932-12.72c-.608.192-1.44.608-2.496 1.248-1.056.608-2.112 1.504-3.168 2.688-1.024 1.184-1.92 2.672-2.688 4.464-.768 1.76-1.152 3.888-1.152 6.384 0 .96.08 1.744.24 2.352.16.576.352 1.024.576 1.344.256.32.544.544.864.672.32.096.624.144.912.144.8 0 1.728-.432 2.784-1.296 1.056-.864 2.16-2.368 3.312-4.512 1.12-2.048 1.92-4.352 2.4-6.912.48-2.592.72-5.296.72-8.112 0-3.68-.496-6.56-1.488-8.64-.992-2.112-2.368-3.168-4.128-3.168-.736 0-1.568.24-2.496.72-.928.448-1.792 1.072-2.592 1.872-.224.224-.464.48-.72.768-.224.288-.432.432-.624.432-.16 0-.272-.048-.336-.144a.852.852 0 01-.096-.384c0-.256.048-.464.144-.624.128-.192.272-.368.432-.528 1.28-1.44 2.528-2.496 3.744-3.168 1.216-.672 2.64-1.008 4.272-1.008 2.304 0 4.144 1.104 5.52 3.312 1.408 2.208 2.112 5.408 2.112 9.6 0 2.688-.384 5.376-1.152 8.064-.768 2.688-2.016 5.472-3.744 8.352-1.664 2.784-3.392 4.88-5.184 6.288-1.792 1.408-3.392 2.112-4.8 2.112-1.312 0-2.4-.448-3.264-1.344-.864-.928-1.312-2.336-1.344-4.224-.064-2.016.416-4.208 1.44-6.576a22.212 22.212 0 012.688-4.56c1.088-1.376 2.192-2.56 3.312-3.552 1.12-1.024 2.224-1.84 3.312-2.448 1.088-.608 2.016-.976 2.784-1.104.384.096.576.336.576.72 0 .192-.08.352-.24.48a1.279 1.279 0 01-.432.288zm33.823.672c0 .192-.096.528-.288 1.008-.192.48-.368.944-.528 1.392-.224.608-.416 1.12-.576 1.536-.16.416-.352.928-.576 1.536a58.957 58.957 0 00-1.536 4.896 78.232 78.232 0 00-1.056 4.512c-.096.448-.176.848-.24 1.2-.032.32-.064.704-.096 1.152-.064.64-.112 1.2-.144 1.68 0 .448-.08.848-.24 1.2-.064.096-.24.256-.528.48-.256.224-.56.448-.912.672a5.001 5.001 0 01-1.152.624c-.384.192-.72.288-1.008.288-.192 0-.4-.048-.624-.144a.598.598 0 01-.336-.48c0-.416.144-1.28.432-2.592.32-1.312.8-3.104 1.44-5.376.224-.768.448-1.568.672-2.4.192-.672.4-1.408.624-2.208.224-.8.448-1.52.672-2.16.32-.992.624-1.952.912-2.88.32-.928.576-1.664.768-2.208.192-.544.352-.928.48-1.152.16-.256.416-.512.768-.768.256-.16.496-.272.72-.336.224-.096.496-.144.816-.144.544 0 .928.032 1.152.096.256.064.384.256.384.576zm-19.344 9.504c-.16.416-.304.832-.432 1.248-.128.352-.272.736-.432 1.152-.128.416-.24.8-.336 1.152l-.864 2.784c-.256.928-.384 1.6-.384 2.016 0 .608.128 1.024.384 1.248.288.224.8.336 1.536.336.512 0 1.12-.16 1.824-.48.736-.352 1.424-.88 2.064-1.584.672-.704 1.232-1.568 1.68-2.592.48-1.024.72-2.24.72-3.648 0-.8-.176-1.488-.528-2.064-.352-.608-.928-.912-1.728-.912-.544 0-1.136.144-1.776.432-.608.256-1.184.56-1.728.912zm.48-1.536a14.251 14.251 0 012.592-1.344 7.425 7.425 0 012.736-.528c1.216 0 2.112.272 2.688.816.608.512.928 1.376.96 2.592.032 2.144-.752 4.224-2.352 6.24a22.107 22.107 0 01-2.208 2.448c-.8.768-1.872 1.536-3.216 2.304-.928.544-1.856.928-2.784 1.152-.928.256-1.728.384-2.4.384-1.92 0-2.88-.688-2.88-2.064 0-.736.128-1.776.384-3.12.288-1.344.848-3.2 1.68-5.568.096-.288.24-.704.432-1.248s.384-1.136.576-1.776c.224-.672.432-1.36.624-2.064l.624-1.968c.064-.224.128-.464.192-.72.064-.288.128-.56.192-.816.064-.288.128-.592.192-.912l.048-.576c0-.224-.08-.336-.24-.336-.192 0-.4.032-.624.096a2.52 2.52 0 00-.576.144 4.399 4.399 0 01-.576.24c-.256 0-.384-.208-.384-.624 0-.192.256-.416.768-.672.512-.288 1.12-.592 1.824-.912.768-.352 1.52-.624 2.256-.816.768-.192 1.376-.288 1.824-.288.192 0 .368.048.528.144.16.064.24.224.24.48 0 .288-.24 1.168-.72 2.64a67.818 67.818 0 01-.912 2.736c-.384 1.088-.88 2.4-1.488 3.936z" fill="#DD3F1E"/></g><defs><linearGradient id="paint0_linear" x1="-6.096" y1="34.035" x2="93.876" y2="34.035" gradientUnits="userSpaceOnUse"><stop stop-color="#F9B10E"/><stop offset="1" stop-color="#D5482E"/></linearGradient><clipPath id="clip0"><path fill="#fff" d="M0 0h360v68H0z"/></clipPath></defs></svg>