<svg xmlns="http://www.w3.org/2000/svg" width="59.687" height="54.531" viewBox="0 0 59.687 54.531"><defs><linearGradient id="a" x1=".876" y1=".127" x2=".165" y2=".872" gradientUnits="objectBoundingBox"><stop offset="0" stop-color="#c034a1"/><stop offset=".454" stop-color="#cc578f"/><stop offset="1" stop-color="#e6a767"/></linearGradient></defs><g data-name="Group 262"><g data-name="Group 99"><path data-name="Path 461" d="M174.6 147.29c0 18.724-9.35 26.385-29.843 26.385s-29.844-7.661-29.844-26.385 9.35-28.146 29.844-28.146 29.843 9.423 29.843 28.146" transform="translate(-114.915 -119.144)" fill="url(#a)"/></g><g data-name="Group 100" fill="#fff"><path data-name="Path 456" d="M29.981 13.786c4.756 0 5.319.017 7.2.094a10.821 10.821 0 013.307.551 5.615 5.615 0 012.047 1.2 4.943 4.943 0 011.333 1.843 8.1 8.1 0 01.613 2.974c.086 1.69.1 2.2.1 6.475s-.018 4.785-.1 6.474a8.106 8.106 0 01-.613 2.975 4.945 4.945 0 01-1.333 1.842 5.61 5.61 0 01-2.047 1.2 10.8 10.8 0 01-3.307.551c-1.878.077-2.442.094-7.2.094s-5.32-.017-7.2-.094a10.8 10.8 0 01-3.308-.551 5.606 5.606 0 01-2.047-1.2 4.945 4.945 0 01-1.333-1.842 8.1 8.1 0 01-.613-2.975c-.086-1.689-.1-2.2-.1-6.474s.018-4.785.1-6.475a8.1 8.1 0 01.613-2.974 4.943 4.943 0 011.333-1.843 5.611 5.611 0 012.047-1.2 10.821 10.821 0 013.308-.551c1.878-.077 2.441-.094 7.2-.094m0-2.887c-4.837 0-5.443.019-7.344.1a14.34 14.34 0 00-4.323.745 8.868 8.868 0 00-3.155 1.848 7.823 7.823 0 00-2.054 2.838 10.713 10.713 0 00-.827 3.889c-.087 1.709-.109 2.255-.109 6.607s.021 4.9.109 6.606a10.7 10.7 0 00.827 3.889 7.817 7.817 0 002.054 2.839 8.877 8.877 0 003.155 1.848 14.345 14.345 0 004.323.745c1.9.078 2.506.1 7.344.1s5.443-.019 7.344-.1a14.351 14.351 0 004.323-.745 8.886 8.886 0 003.155-1.848 7.817 7.817 0 002.051-2.843 10.7 10.7 0 00.827-3.889c.087-1.709.109-2.255.109-6.606s-.021-4.9-.109-6.607a10.714 10.714 0 00-.827-3.889 7.824 7.824 0 00-2.051-2.834 8.877 8.877 0 00-3.155-1.848 14.347 14.347 0 00-4.323-.745c-1.9-.078-2.506-.1-7.344-.1"/><path data-name="Path 457" d="M30.419 18.745a8.393 8.393 0 108.04 8.385 8.218 8.218 0 00-8.04-8.385m0 13.829a5.448 5.448 0 115.219-5.444 5.336 5.336 0 01-5.219 5.444"/><path data-name="Path 458" d="M41.507 18.973a2.466 2.466 0 11-2.461-2.32 2.393 2.393 0 012.461 2.32"/></g></g></svg>