<svg width="60" height="55" viewBox="0 0 60 55" fill="none" xmlns="http://www.w3.org/2000/svg"><g clip-path="url(#clip0)"><path d="M59.687 28.146c0 18.724-9.35 26.385-29.843 26.385C9.351 54.531 0 46.87 0 28.146 0 9.422 9.35 0 29.844 0s29.843 9.423 29.843 28.146z" fill="#4A76A8"/><g clip-path="url(#clip1)"><path d="M40.553 28.37c-.517-.653-.369-.943 0-1.527.007-.007 4.278-5.908 4.718-7.91l.002-.001c.219-.73 0-1.265-1.057-1.265h-3.499c-.89 0-1.301.46-1.521.974 0 0-1.781 4.264-4.301 7.028-.814.799-1.19 1.055-1.634 1.055-.218 0-.558-.256-.558-.985v-6.807c0-.875-.25-1.265-.987-1.265h-5.501c-.559 0-.891.408-.891.788 0 .829 1.26 1.02 1.39 3.353v5.063c0 1.109-.2 1.313-.647 1.313-1.19 0-4.076-4.281-5.787-9.181-.345-.951-.683-1.335-1.58-1.335h-3.5c-.999 0-1.2.46-1.2.975 0 .909 1.19 5.43 5.53 11.404 2.894 4.077 6.969 6.286 10.675 6.286 2.228 0 2.5-.49 2.5-1.334 0-3.896-.201-4.264.915-4.264.517 0 1.408.256 3.488 2.222 2.377 2.332 2.768 3.376 4.099 3.376h3.498c.998 0 1.503-.49 1.212-1.458-.665-2.036-5.161-6.224-5.364-6.504z" fill="#fff"/></g></g><defs><clipPath id="clip0"><path fill="#fff" d="M0 0h59.687v54.531H0z"/></clipPath><clipPath id="clip1"><path fill="#fff" transform="translate(14 11)" d="M0 0h32v32H0z"/></clipPath></defs></svg>