<svg xmlns="http://www.w3.org/2000/svg" width="59.687" height="54.531" viewBox="0 0 59.687 54.531"><g data-name="Group 95"><path data-name="Path 461" d="M59.685 28.146c0 18.724-9.35 26.385-29.843 26.385S-.002 46.87-.002 28.146 9.348 0 29.842 0s29.843 9.423 29.843 28.146" fill="#fe0000"/><g data-name="Group 87"><path data-name="Path 462" d="M46.058 20.553a5.886 5.886 0 00-1.289-2.876 4.953 4.953 0 00-3.248-1.228c-4.538-.293-11.344-.293-11.344-.293h-.013s-6.807 0-11.344.293a4.955 4.955 0 00-3.249 1.228 5.883 5.883 0 00-1.288 2.876 39.147 39.147 0 00-.325 4.69v2.2a39.144 39.144 0 00.325 4.69 4.371 4.371 0 004.863 4.115c2.6.222 11.025.291 11.025.291s6.814-.009 11.351-.3a4.953 4.953 0 003.248-1.228 5.889 5.889 0 001.289-2.877 39.276 39.276 0 00.324-4.69v-2.2a39.279 39.279 0 00-.324-4.69" fill="#fff"/><path data-name="Path 463" d="M27.87 30.74l8.49-4.366-8.49-4.4z" fill="#fc0001"/></g></g></svg>